<svg xmlns:xlink="http://www.w3.org/1999/xlink" width="23" height="19" viewBox="0 0 23 19" fill="none" xmlns="http://www.w3.org/2000/svg">
<path fill-rule="evenodd" clip-rule="evenodd" d="M23 2.2423C22.1549 2.62262 21.245 2.87982 20.2905 2.99474C21.2652 2.40373 22.0131 1.46659 22.3655 0.350231C21.4529 0.897466 20.4444 1.29558 19.3671 1.509C18.5085 0.580069 17.2814 0 15.9233 0C13.3191 0 11.2064 2.14106 11.2064 4.78147C11.2064 5.15632 11.2469 5.52023 11.3279 5.87046C7.40612 5.67072 3.92986 3.76908 1.6011 0.87284C1.19475 1.58151 0.962552 2.40373 0.962552 3.27931C0.962552 4.93743 1.7955 6.40128 3.06181 7.25907C2.28961 7.23582 1.5606 7.01829 0.923402 6.66259V6.72141C0.923402 9.03896 2.55016 10.9721 4.71016 11.4099C4.31461 11.522 3.89746 11.5781 3.46681 11.5781C3.16306 11.5781 2.86606 11.5494 2.57851 11.4933C3.17926 13.3922 4.92076 14.7753 6.98627 14.8123C5.37166 16.0956 3.33586 16.8603 1.1259 16.8603C0.745202 16.8603 0.368551 16.8384 0 16.7946C2.08845 18.1491 4.56976 18.9412 7.23332 18.9412C15.9138 18.9412 20.6591 11.6561 20.6591 5.33691C20.6591 5.12896 20.655 4.92101 20.6469 4.71717C21.569 4.0427 22.3695 3.20133 23 2.2423Z" fill="#FFFFFF"></path>
</svg>