<?xml version="1.0" encoding="utf-8"?>
<!-- Generator: Adobe Illustrator 25.4.0, SVG Export Plug-In . SVG Version: 6.00 Build 0)  -->
<svg version="1.1" id="Laag_1" xmlns="http://www.w3.org/2000/svg" xmlns:xlink="http://www.w3.org/1999/xlink" x="0px" y="0px"
	 viewBox="0 0 60 60" style="enable-background:new 0 0 60 60;" xml:space="preserve">
<style type="text/css">
	.st0{fill:#E42525;}
</style>
<symbol  id="carousel_arrow_next" viewBox="-9 -9 18 18">
	<path class="st0" d="M0.8-8.7c-0.4-0.4-1.2-0.4-1.6,0c-0.4,0.4-0.4,1.2,0,1.6l6,6h-13C-8.5-1.1-9-0.6-9,0s0.5,1.1,1.1,1.1h13l-6,6
		c-0.4,0.4-0.4,1.2,0,1.6c0.4,0.4,1.2,0.4,1.6,0l7.9-7.9c0.4-0.4,0.4-1.2,0-1.6L0.8-8.7z"/>
</symbol>
<use xlink:href="#carousel_arrow_next"  width="18" height="18" id="XMLID_00000098205849552253068000000008983742579501068678_" x="-9" y="-9" transform="matrix(1 0 0 1 30 29.89)" style="overflow:visible;"/>
</svg>
