<?xml version="1.0" encoding="utf-8"?>
<!-- Generator: Adobe Illustrator 25.4.0, SVG Export Plug-In . SVG Version: 6.00 Build 0)  -->
<svg version="1.1" id="Laag_1" xmlns="http://www.w3.org/2000/svg" xmlns:xlink="http://www.w3.org/1999/xlink" x="0px" y="0px"
	 viewBox="0 0 60 60" style="enable-background:new 0 0 60 60;" xml:space="preserve">
<style type="text/css">
	.st0{fill:#E42525;}
</style>
<symbol  id="carousel_arrow_prev" viewBox="-9 -9 18 18">
	<path class="st0" d="M-0.8,8.7c0.4,0.4,1.2,0.4,1.6,0c0.4-0.4,0.4-1.2,0-1.6l-6-6h13C8.5,1.1,9,0.6,9,0S8.5-1.1,7.9-1.1h-13l6-6
		c0.4-0.4,0.4-1.2,0-1.6c-0.4-0.4-1.2-0.4-1.6,0l-7.9,7.9c-0.4,0.4-0.4,1.2,0,1.6L-0.8,8.7z"/>
</symbol>
<use xlink:href="#carousel_arrow_prev"  width="18" height="18" id="XMLID_00000128477891463506030950000002938016977797600190_" x="-9" y="-9" transform="matrix(1 0 0 1 29.89 29.89)" style="overflow:visible;"/>
</svg>
